<!DOCTYPE svg PUBLIC "-//W3C//DTD SVG 20010904//EN" "http://www.w3.org/TR/2001/REC-SVG-20010904/DTD/svg10.dtd">
<svg version="1.0" xmlns="http://www.w3.org/2000/svg" width="1188px" height="454px" viewBox="0 0 11880 4540" preserveAspectRatio="xMidYMid meet">
<g id="layer101" fill="#ffffff" stroke="none">
 <path d="M866 3460 c-48 -43 -59 -83 -54 -206 l3 -103 138 -276 137 -276 0 -711 c0 -702 0 -711 21 -748 43 -76 -53 -70 1196 -70 1091 0 1119 1 1150 20 66 40 63 5 63 789 l0 710 140 281 140 281 0 120 c0 135 -10 167 -63 199 -31 20 -61 20 -1434 20 l-1402 0 -35 -30z m2829 -76 c12 -13 15 -33 13 -93 l-3 -76 -1397 -3 -1398 -2 0 84 c0 70 3 87 18 95 11 7 474 10 1384 11 1244 0 1368 -1 1383 -16z m-140 -514 l-125 -250 0 -714 c0 -636 -2 -716 -16 -730 -14 -14 -127 -16 -1100 -16 -729 0 -1092 3 -1105 10 -18 10 -19 29 -19 700 l0 690 866 0 c577 0 872 3 885 10 21 12 25 50 7 68 -9 9 -222 12 -895 12 l-883 0 -115 230 c-63 126 -115 232 -115 235 0 3 617 5 1370 5 l1370 0 -125 -250z"/>
 <path d="M1391 3011 c-12 -12 -21 -25 -21 -31 0 -5 9 -19 21 -31 18 -18 30 -21 86 -17 64 4 83 15 83 48 0 33 -19 44 -83 48 -56 4 -68 1 -86 -17z"/>
 <path d="M1671 3011 c-12 -12 -21 -25 -21 -31 0 -5 9 -19 21 -31 18 -18 30 -21 86 -17 64 4 83 15 83 48 0 33 -19 44 -83 48 -56 4 -68 1 -86 -17z"/>
 <path d="M1950 3010 c-25 -25 -25 -35 0 -60 20 -20 30 -21 366 -18 293 3 346 5 354 18 14 22 12 47 -6 64 -13 14 -60 16 -355 16 -326 0 -340 -1 -359 -20z"/>
 <path d="M2790 3010 c-25 -25 -25 -35 1 -61 18 -18 30 -21 86 -17 65 4 83 15 83 50 0 33 -29 48 -91 48 -46 0 -63 -4 -79 -20z"/>
 <path d="M3070 3010 c-25 -25 -25 -35 1 -61 18 -18 30 -21 86 -17 65 4 83 15 83 50 0 33 -29 48 -91 48 -46 0 -63 -4 -79 -20z"/>
 <path d="M1247 2822 c-40 -44 -7 -72 82 -72 72 0 91 10 91 47 0 31 -28 43 -98 43 -44 0 -63 -5 -75 -18z"/>
 <path d="M1526 2818 c-20 -28 -20 -33 0 -52 19 -20 144 -22 162 -4 18 18 14 56 -7 68 -11 5 -47 10 -80 10 -51 0 -62 -3 -75 -22z"/>
 <path d="M1806 2818 c-20 -28 -20 -33 0 -52 19 -20 144 -22 162 -4 18 18 14 56 -7 68 -11 5 -47 10 -80 10 -51 0 -62 -3 -75 -22z"/>
 <path d="M2086 2818 c-20 -28 -20 -33 0 -52 19 -20 144 -22 162 -4 18 18 14 56 -7 68 -11 5 -47 10 -80 10 -51 0 -62 -3 -75 -22z"/>
 <path d="M2366 2818 c-20 -28 -20 -33 0 -52 19 -20 144 -22 162 -4 18 18 14 56 -7 68 -11 5 -47 10 -80 10 -51 0 -62 -3 -75 -22z"/>
 <path d="M2646 2818 c-20 -28 -20 -33 0 -52 19 -20 144 -22 162 -4 18 18 14 56 -7 68 -11 5 -47 10 -80 10 -51 0 -62 -3 -75 -22z"/>
 <path d="M2926 2819 c-15 -22 -11 -48 8 -61 18 -13 141 -9 154 4 18 18 14 56 -7 68 -11 5 -47 10 -80 10 -50 0 -62 -4 -75 -21z"/>
 <path d="M3206 2819 c-15 -22 -11 -48 8 -61 18 -13 141 -9 154 4 18 18 14 56 -7 68 -11 5 -47 10 -80 10 -50 0 -62 -4 -75 -21z"/>
 <path d="M3074 2642 c-19 -13 -23 -39 -8 -61 14 -19 24 -21 129 -21 106 0 115 1 129 22 20 28 20 33 0 52 -12 13 -39 16 -127 16 -62 0 -117 -4 -123 -8z"/>
 <path d="M1335 2456 c-17 -7 -36 -25 -43 -40 -9 -20 -12 -160 -12 -557 0 -594 -2 -579 68 -599 26 -8 324 -10 984 -8 l948 3 27 28 28 27 0 550 0 550 -28 27 -27 28 -958 2 c-776 2 -963 0 -987 -11z m1905 -596 l0 -510 -930 0 -930 0 0 510 0 510 930 0 930 0 0 -510z"/>
 <path d="M7644 2745 c-168 -36 -278 -150 -304 -313 -31 -188 71 -364 247 -428 63 -23 84 -26 160 -22 99 5 157 26 216 78 90 78 136 231 111 359 l-6 31 -234 0 c-250 0 -252 0 -218 49 42 59 184 79 294 41 30 -10 58 -16 61 -12 3 4 22 37 42 74 l37 68 -23 14 c-40 27 -99 47 -174 62 -89 17 -128 17 -209 -1z m200 -487 c-12 -41 -35 -66 -66 -77 -33 -12 -98 -5 -98 10 0 5 -9 9 -21 9 -12 0 -23 8 -26 20 -3 11 -9 20 -13 20 -4 0 -10 9 -13 20 -5 19 0 20 120 20 l124 0 -7 -22z"/>
 <path d="M8452 2742 c-120 -43 -177 -160 -140 -286 17 -57 82 -119 152 -145 63 -23 207 -51 267 -51 22 0 39 -3 39 -6 0 -36 -73 -74 -143 -74 -23 0 -80 14 -127 30 -47 16 -86 30 -87 30 -7 1 -83 -156 -79 -166 6 -16 146 -69 224 -84 86 -17 234 -8 293 18 55 24 111 77 139 131 30 61 40 150 40 384 l0 217 -105 0 c-76 0 -107 -4 -109 -12 -3 -7 -7 -25 -10 -41 l-6 -27 -39 25 c-98 66 -221 88 -309 57z m258 -217 c47 -24 50 -27 50 -65 0 -47 -8 -48 -103 -26 -66 15 -97 39 -97 72 0 49 73 58 150 19z"/>
 <path d="M4700 2365 l0 -375 -140 0 -140 0 0 -110 0 -110 405 0 405 0 0 110 0 110 -135 0 -135 0 0 375 0 375 -130 0 -130 0 0 -375z"/>
 <path d="M5480 2255 l0 -485 130 0 130 0 0 375 0 375 205 0 205 0 0 110 0 110 -335 0 -335 0 0 -485z"/>
 <path d="M6452 2368 l3 -373 105 0 105 0 10 77 10 77 48 -55 c65 -73 131 -106 224 -112 77 -5 163 12 163 32 -1 6 -11 54 -23 106 -22 90 -24 95 -47 92 -14 -2 -57 -4 -95 -5 -96 -3 -155 27 -207 103 l-37 55 -1 188 0 187 -130 0 -130 0 2 -372z"/>
 <path d="M9272 2258 l3 -483 190 0 c222 0 291 14 385 77 94 63 148 159 170 303 27 178 -21 362 -119 461 -98 98 -192 124 -449 124 l-182 0 2 -482z m359 248 c40 -17 70 -47 94 -96 27 -53 33 -213 10 -282 -27 -85 -91 -138 -165 -138 l-30 0 0 265 0 265 29 0 c16 0 44 -6 62 -14z"/>
 <path d="M10240 2255 l0 -485 213 0 c291 0 382 22 456 106 53 60 71 113 71 212 0 70 -5 97 -24 137 -21 46 -64 95 -109 128 -17 12 -11 26 87 200 l105 187 -144 0 -144 0 -82 -160 -81 -160 -49 0 -49 0 0 160 0 160 -125 0 -125 0 0 -485z m424 -59 c46 -19 66 -52 66 -107 0 -65 -26 -95 -95 -109 -30 -6 -73 -10 -97 -8 l-43 3 -3 118 -3 117 71 0 c39 0 86 -6 104 -14z"/>
 </g>

</svg>